<?xml version="1.0" encoding="UTF-8" standalone="no"?>
<svg
   xmlns:dc="http://purl.org/dc/elements/1.1/"
   xmlns:cc="http://creativecommons.org/ns#"
   xmlns:rdf="http://www.w3.org/1999/02/22-rdf-syntax-ns#"
   xmlns:svg="http://www.w3.org/2000/svg"
   xmlns="http://www.w3.org/2000/svg"
   id="svg3795"
   version="1.1"
   viewBox="0 0 264 88"
   height="88"
   width="264">
  <metadata
     id="metadata3801">
    <rdf:RDF>
      <cc:Work
         rdf:about="">
        <dc:format>image/svg+xml</dc:format>
        <dc:type
           rdf:resource="http://purl.org/dc/dcmitype/StillImage" />
        <dc:title>default-skin 2</dc:title>
      </cc:Work>
    </rdf:RDF>
  </metadata>
  <defs
     id="defs3799" />
  <title
     id="title3758">default-skin 2</title>
  <g
     id="g3793"
     fill-rule="evenodd"
     fill="none">
    <g
       id="g3791">
      <path
         fill="#fff"
         id="Shape"
         d="M67.002 59.5v3.768c-6.307.84-9.184 5.75-10.002 9.732 2.22-2.83 5.564-5.098 10.002-5.098V71.5L73 65.585 67.002 59.5z" />
      <g
         id="g3767"
         fill="#fff">
        <path
           id="path3765"
           d="M62 24v5h-2v-3h-3v-2h5zM62 20h-5v-2h3v-3h2v5zM70 20v-5h2v3h3v2h-5zM70 24h5v2h-3v3h-2v-5z" />
      </g>
      <path
         id="path3769"
         fill="#fff"
         d="M20.586 66l-5.656-5.656 1.414-1.414L22 64.586l5.656-5.656 1.414 1.414L23.414 66l5.656 5.656-1.414 1.414L22 67.414l-5.656 5.656-1.414-1.414L20.586 66z" />
      <path
         id="path3771"
         fill="#fff"
         d="M111.785 65.03L110 63.5l3-3.5h-10v-2h10l-3-3.5 1.785-1.468L117 59l-5.215 6.03z" />
      <path
         id="path3773"
         fill="#fff"
         d="M152.215 65.03L154 63.5l-3-3.5h10v-2h-10l3-3.5-1.785-1.468L147 59l5.215 6.03z" />
      <g
         id="g3779">
        <path
           d="M160.957 28.543l-3.25-3.25-1.413 1.414 3.25 3.25z"
           fill="#fff"
           id="Rectangle-11" />
        <path
           stroke-width="1.5"
           stroke="#fff"
           id="Oval-1"
           d="M152.5 27c3.038 0 5.5-2.462 5.5-5.5s-2.462-5.5-5.5-5.5-5.5 2.462-5.5 5.5 2.462 5.5 5.5 5.5z" />
        <path
           id="path3777"
           d="M150 21h5v1h-5z"
           fill="#fff" />
      </g>
      <g
         id="g3789">
        <path
           id="path3781"
           fill="#fff"
           d="M116.957 28.543l-1.414 1.414-3.25-3.25 1.414-1.414 3.25 3.25z" />
        <path
           id="path3783"
           stroke-width="1.5"
           stroke="#fff"
           d="M108.5 27c3.038 0 5.5-2.462 5.5-5.5s-2.462-5.5-5.5-5.5-5.5 2.462-5.5 5.5 2.462 5.5 5.5 5.5z" />
        <path
           id="path3785"
           d="M106 21h5v1h-5z"
           fill="#fff" />
        <path
           id="path3787"
           d="M109.043 19.008l-.085 5-1-.017.085-5z"
           fill="#fff" />
      </g>
      <path
         style="fill:#ffffff;stroke-width:0.32209736"
         d="m 28.699627,12.474163 -2.351314,2.351306 C 25.09213,14.084645 23.610489,13.698125 22.064414,13.698125 17.297379,13.698125 13.4,17.563301 13.4,22.362549 v 0.193255 h 1.900373 c 0,-0.06442 -0.03219,-0.12884 -0.03219,-0.193255 0,-3.736329 3.059922,-6.764043 6.796248,-6.764043 1.030717,0 1.997009,0.225466 2.866673,0.64419 l -1.86817,1.868167 h 5.636708 z m 0,9.2764 c 0,0.06442 0.03219,0.12884 0.03219,0.193255 0,3.736336 -3.059922,6.764052 -6.796251,6.764052 -1.030714,0 -1.997006,-0.225476 -2.86667,-0.644197 L 20.937073,26.1633 h -5.6367 V 31.8 l 2.351313,-2.351314 c 1.256183,0.740824 2.737825,1.159556 4.283897,1.159556 4.767037,0 8.664417,-3.865169 8.664417,-8.664424 v -0.193255 z"
         class="st0"
         id="XMLID_8_" />
    </g>
  </g>
</svg>
